<?xml version="1.0" ?><!DOCTYPE svg  PUBLIC '-//W3C//DTD SVG 1.1//EN'  'http://www.w3.org/Graphics/SVG/1.1/DTD/svg11.dtd'><svg enable-background="new 0 0 500 500" height="500px" id="Layer_1" version="1.1" viewBox="0 0 500 500" width="500px" xml:space="preserve" xmlns="http://www.w3.org/2000/svg" xmlns:xlink="http://www.w3.org/1999/xlink"><circle cx="250.5" cy="250" fill="#333333" r="247.5"/><g><path d="M119.606,303.955c-10.699-18.358-10.843-43.803-11.904-65.394c-1.269-26.35,0.006-52.771,17.431-73.701   c18.043-20.834,51.447-29.053,78.82-34.891c48.924-10.686,119.691-13.889,156.885,20.558   c41.382,37.93,39.748,115.505,10.354,164.83c-14.828,24.484-38.71,40.314-66.944,51.69c-28.233,11.375-75.418,15.479-98.848,8.066   c-23.427-7.417-38.834-18.782-53.594-29.264S123.315,310.518,119.606,303.955z" fill="#8E5C02"/><path d="M220.833,235.87c-21.137-0.976-43.156-5.078-61.21-10.355c-22.019-6.445-34.348-13.477-40.953-25.198   c-6.166-11.917-7.928-24.028,3.521-35.358c20.256-20.316,62.09-38.483,111.852-42.781c55.044-4.883,114.053,8.009,136.51,31.452   c11.01,11.72,9.688,24.417,2.203,37.505c-7.485,13.088-32.146,26.762-51.963,33.209c-19.817,6.447-30.384,7.227-47.559,9.769   C256.06,236.651,228.318,236.262,220.833,235.87z" fill="#AAA400"/><path d="M241.391,189.501c-4.006-0.185-8.18-0.962-11.603-1.963c-4.174-1.222-6.512-2.555-7.764-4.778   c-1.168-2.259-1.503-4.554,0.668-6.703c3.841-3.853,11.771-7.295,21.205-8.11c10.434-0.927,21.622,1.518,25.878,5.961   c2.088,2.222,1.837,4.63,0.418,7.111c-1.418,2.481-6.094,5.072-9.85,6.294c-3.758,1.224-5.761,1.371-9.018,1.853   C248.071,189.648,242.812,189.575,241.391,189.501z" fill="#F0E099"/><g><g><path d="M248.741,195.092c4.023,4.758,8.019,9.534,11.777,14.506c0.559,0.737,1.821,0.015,1.256-0.734     c-3.834-5.069-7.903-9.946-12.004-14.799C249.163,193.348,248.141,194.381,248.741,195.092L248.741,195.092z" fill="#F0E099"/></g><g><path d="M255.871,193.253c5.445,4.794,11.18,9.148,17.324,13.008c0.796,0.5,1.524-0.758,0.733-1.256     c-6.039-3.79-11.681-8.068-17.029-12.779C256.198,191.61,255.167,192.633,255.871,193.253L255.871,193.253z" fill="#F0E099"/></g><g><path d="M267.82,191.335c8.545,4.333,17.486,7.698,26.599,10.624c0.896,0.286,1.275-1.116,0.387-1.401     c-8.993-2.888-17.818-6.2-26.252-10.476C267.72,189.66,266.984,190.912,267.82,191.335L267.82,191.335z" fill="#F0E099"/></g><g><path d="M281.579,188.898c13.262,0.913,26.321,3.837,39.443,5.834c0.915,0.14,1.309-1.26,0.386-1.399     c-13.25-2.02-26.435-4.967-39.829-5.888C280.644,187.381,280.65,188.833,281.579,188.898L281.579,188.898z" fill="#F0E099"/></g><g><path d="M290.828,184.209c13.646-1.036,27.297-0.079,40.958,0c0.936,0.006,0.936-1.447,0-1.452     c-13.661-0.08-27.313-1.038-40.958,0C289.899,182.829,289.894,184.281,290.828,184.209L290.828,184.209z" fill="#F0E099"/></g><g><path d="M280.452,177.736c11.773-1.654,23.615-2.318,35.479-2.905c0.933-0.046,0.937-1.499,0-1.452     c-11.994,0.594-23.962,1.285-35.864,2.956C279.142,176.465,279.537,177.865,280.452,177.736L280.452,177.736z" fill="#F0E099"/></g><g><path d="M276.488,174.806c12.295-4.213,24.698-8.097,36.993-12.309c0.882-0.303,0.504-1.706-0.386-1.401     c-12.295,4.213-24.698,8.097-36.993,12.309C275.221,173.707,275.599,175.11,276.488,174.806L276.488,174.806z" fill="#F0E099"/></g><g><path d="M280.626,163.01c7.283-4.465,14.875-8.382,22.459-12.308c0.833-0.431,0.097-1.685-0.733-1.254     c-7.582,3.925-15.176,7.842-22.459,12.308C279.096,162.244,279.824,163.5,280.626,163.01L280.626,163.01z" fill="#F0E099"/></g><g><path d="M272.959,162.75c4.03-5.331,8.384-10.352,13.097-15.092c0.66-0.665-0.366-1.691-1.028-1.027     c-4.799,4.829-9.219,9.956-13.324,15.385C271.138,162.764,272.4,163.486,272.959,162.75L272.959,162.75z" fill="#F0E099"/></g><g><path d="M255.855,161.989c1.371-5.485,2.58-10.927,2.669-16.603c0.015-0.937-1.438-0.936-1.452,0     c-0.089,5.545-1.279,10.863-2.616,16.217C254.229,162.512,255.629,162.898,255.855,161.989L255.855,161.989z" fill="#F0E099"/></g><g><path d="M245.098,158.938c-4.959-5.572-9.298-11.668-14.533-16.996c-0.656-0.669-1.684,0.358-1.025,1.027     c5.233,5.328,9.574,11.424,14.533,16.996C244.695,160.666,245.72,159.636,245.098,158.938L245.098,158.938z" fill="#F0E099"/></g><g><path d="M229.245,160.111c-5.116-5.137-10.03-10.488-14.419-16.265c-0.56-0.734-1.823-0.012-1.256,0.734     c4.467,5.876,9.441,11.331,14.646,16.558C228.878,161.803,229.905,160.775,229.245,160.111L229.245,160.111z" fill="#F0E099"/></g><g><path d="M220.995,165.199c-9.195-3.651-17.748-8.381-26.248-13.406c-0.809-0.479-1.54,0.777-0.734,1.254     c8.607,5.089,17.289,9.857,26.596,13.554C221.481,166.945,221.856,165.54,220.995,165.199L220.995,165.199z" fill="#F0E099"/></g><g><path d="M214.391,169.301c-9.243-2.38-18.376-5.169-27.745-7.033c-0.916-0.182-1.305,1.218-0.386,1.401     c9.369,1.862,18.502,4.652,27.745,7.033C214.913,170.936,215.297,169.535,214.391,169.301L214.391,169.301z" fill="#F0E099"/></g><g><path d="M207.592,172.206c-8.852-0.605-17.627-1.805-26.424-2.931c-0.927-0.119-0.915,1.335,0,1.453     c8.797,1.125,17.572,2.325,26.424,2.931C208.528,173.723,208.52,172.27,207.592,172.206L207.592,172.206z" fill="#F0E099"/></g><g><path d="M206.27,177.481c-10.145-0.04-20.262-0.606-30.388-1.172c-0.936-0.052-0.93,1.401,0,1.453     c10.126,0.565,20.243,1.132,30.388,1.172C207.206,178.937,207.206,177.485,206.27,177.481L206.27,177.481z" fill="#F0E099"/></g><g><path d="M202.114,181.609c-8.244,2.335-16.74,3.478-25.103,5.274c-0.916,0.199-0.528,1.598,0.386,1.404     c8.363-1.799,16.861-2.943,25.103-5.277C203.4,182.757,203.017,181.354,202.114,181.609L202.114,181.609z" fill="#F0E099"/></g><g><path d="M204.583,187.545c-4.197,2.481-8.411,4.781-13.039,6.374c-0.881,0.303-0.503,1.706,0.386,1.4     c4.743-1.63,9.08-3.976,13.387-6.521C206.122,188.323,205.392,187.067,204.583,187.545L204.583,187.545z" fill="#F0E099"/></g><g><path d="M209.507,191.688c-0.14,3.608-3.404,6.423-6.247,8.165c-0.796,0.488-0.068,1.746,0.734,1.254     c3.319-2.035,6.805-5.254,6.966-9.418C210.996,190.75,209.543,190.753,209.507,191.688L209.507,191.688z" fill="#F0E099"/></g><g><path d="M214.82,195.771c1.293,3.113,1.292,6.729,1.293,10.729h1.453c-0.002-4-0.006-7.409-1.347-10.636     C215.866,195.011,214.461,194.906,214.82,195.771L214.82,195.771z" fill="#F0E099"/></g><g><path d="M229.425,196.745c1.364,3.064,2.46,6.211,2.544,9.597c0.022,0.934,1.475,0.936,1.452,0     c-0.089-3.648-1.272-7.028-2.74-10.331C230.3,195.156,229.048,195.896,229.425,196.745L229.425,196.745z" fill="#F0E099"/></g><g><path d="M241.308,194.891c0.097,5.307,1.224,10.52,1.32,15.825c0.017,0.936,1.47,0.936,1.453,0     c-0.097-5.305-1.224-10.518-1.32-15.825C242.743,193.957,241.291,193.953,241.308,194.891L241.308,194.891z" fill="#F0E099"/></g><g><path d="M196.357,171.41c2.311,0.349,4.607,0.767,6.95,0.79c3.749,0.037,3.745-5.773,0-5.81     c-1.836-0.018-3.597-0.309-5.407-0.582c-1.564-0.236-3.115,0.368-3.573,2.028C193.946,169.225,194.788,171.173,196.357,171.41     L196.357,171.41z" fill="#212121"/></g><g><path d="M188.5,180.315c0-0.001,7.544-0.002,10.876-0.342c3.692-0.376,3.307-6.19-0.418-5.81     c-3.334,0.34-6.458,0.341-10.458,0.342C185.5,174.506,185.5,180.316,188.5,180.315C188.5,180.315,185.5,180.315,188.5,180.315z" fill="#212121"/></g><g><path d="M190.178,190.935c2.292-0.677,4.586-1.337,6.951-1.711c1.568-0.248,2.413-2.177,2.029-3.573     c-0.454-1.653-2.01-2.277-3.573-2.029c-2.366,0.373-4.658,1.035-6.95,1.711C185.049,186.392,186.577,192.001,190.178,190.935     L190.178,190.935z" fill="#212121"/></g><g><path d="M202.457,195.44c1.256-0.558,2.527-1.086,3.94-1.422c1.541-0.363,2.438-2.088,2.029-3.573     c-0.431-1.566-2.033-2.393-3.573-2.029c-1.854,0.439-3.594,1.237-5.328,2.005c-1.449,0.643-1.774,2.725-1.042,3.975     C199.347,195.875,201.01,196.079,202.457,195.44L202.457,195.44z" fill="#212121"/></g><g><path d="M215.081,198.507c0.066-0.113,0.637-0.889,0.229-0.386c0.282-0.348,0.613-0.652,0.946-0.948     c0.193-0.17,0.397-0.297,0.895-0.605c0.486-0.301,1.004-0.55,1.522-0.789c1.441-0.658,1.781-2.712,1.042-3.974     c-0.859-1.466-2.534-1.702-3.974-1.042c-2.281,1.044-4.386,2.623-5.676,4.812C208.157,198.81,213.18,201.732,215.081,198.507     L215.081,198.507z" fill="#212121"/></g><g><path d="M225.12,202.617c0.142-0.248,0.29-0.494,0.441-0.736c0.098-0.155,0.2-0.308,0.306-0.458     c-0.182,0.223-0.163,0.202,0.055-0.059c0.422-0.505,0.917-0.906,1.245-1.129c1.303-0.896,1.888-2.535,1.042-3.976     c-0.756-1.29-2.667-1.94-3.974-1.044c-1.746,1.201-3.077,2.629-4.13,4.469c-0.789,1.375-0.333,3.17,1.042,3.974     C222.502,204.454,224.335,203.988,225.12,202.617L225.12,202.617z" fill="#212121"/></g><g><path d="M239.339,202.863c1.316-1.226,2.207-2.65,2.395-4.452c0.165-1.58-1.445-2.905-2.905-2.905     c-1.708,0-2.74,1.33-2.905,2.905c0.026-0.25,0.242-0.787-0.085-0.267c0.136-0.163,0.087-0.108-0.151,0.165     c-0.144,0.157-0.297,0.304-0.456,0.446c-1.159,1.08-1.089,3.019,0,4.108C236.379,204.011,238.182,203.943,239.339,202.863     L239.339,202.863z" fill="#212121"/></g><g><path d="M256.009,200.371c-0.422-0.81,0.099,0.408-0.189-0.467c-0.136-0.416-0.229-0.847-0.329-1.271     c-0.192-0.81-0.41-1.596-0.733-2.364c-0.614-1.456-1.896-2.489-3.572-2.027c-1.377,0.378-2.646,2.111-2.03,3.575     c0.758,1.796,0.929,3.739,1.838,5.488c0.73,1.403,2.659,1.812,3.974,1.042C256.382,203.516,256.741,201.775,256.009,200.371     L256.009,200.371z" fill="#212121"/></g><g><path d="M247.061,202.865c-0.526-0.522-0.007-0.03,0.042,0.14c0.186,0.654,0.038,0.076,0.036-0.14     c-0.017-3.745-5.827-3.749-5.81,0c0.008,1.6,0.475,2.969,1.625,4.108c1.124,1.116,2.986,1.123,4.108,0     C248.177,205.857,248.185,203.981,247.061,202.865L247.061,202.865z" fill="#212121"/></g><g><path d="M267.988,199.438c-0.13-1.784-0.891-3.147-1.94-4.548c-0.945-1.266-2.491-1.911-3.974-1.042     c-1.25,0.734-1.993,2.705-1.042,3.976c0.303,0.405,0.598,0.81,0.876,1.233c0.126,0.198,0.242,0.404,0.346,0.616     c-0.066-0.061-0.093-0.14-0.075-0.234c0.115,1.579,1.234,2.905,2.904,2.905C266.579,202.343,268.104,201.019,267.988,199.438     L267.988,199.438z" fill="#212121"/></g><g><path d="M282.766,193.505c-1.544-0.687-3.087-1.371-4.632-2.056c-1.447-0.643-3.107-0.435-3.974,1.042     c-0.734,1.25-0.407,3.333,1.042,3.976c1.543,0.685,3.088,1.369,4.632,2.056c1.446,0.643,3.109,0.435,3.974-1.042     C284.541,196.23,284.214,194.148,282.766,193.505L282.766,193.505z" fill="#212121"/></g><g><path d="M286.707,190.817c2.314,0.342,4.632,0.685,6.948,1.027c1.564,0.233,3.115-0.365,3.572-2.029     c0.381-1.384-0.459-3.34-2.029-3.573c-2.314-0.342-4.632-0.685-6.948-1.027c-1.564-0.23-3.115,0.363-3.572,2.027     C284.297,188.627,285.137,190.587,286.707,190.817L286.707,190.817z" fill="#212121"/></g><g><path d="M292.11,181.79c3.114-0.346,6.347-0.603,9.268-1.816c1.462-0.606,2.488-1.902,2.029-3.574     c-0.381-1.382-2.109-2.637-3.573-2.028c-2.46,1.021-5.099,1.317-7.724,1.608c-1.574,0.175-2.905,1.19-2.905,2.905     C289.205,180.336,290.533,181.965,292.11,181.79L292.11,181.79z" fill="#212121"/></g><g><path d="M290.566,175.863c2.558-0.755,5.12-1.468,7.721-2.055c3.656-0.823,2.105-6.424-1.543-5.602     c-2.603,0.585-5.165,1.298-7.721,2.055C285.438,171.32,286.966,176.928,290.566,175.863L290.566,175.863z" fill="#212121"/></g><g><path d="M287.216,167.922c-0.539,0.447,0.16-0.082,0.245-0.133c0.26-0.161,0.535-0.299,0.808-0.44     c0.723-0.375,1.476-0.697,2.219-1.027c1.449-0.643,1.776-2.725,1.042-3.975c-0.864-1.478-2.526-1.685-3.974-1.043     c-1.587,0.705-3.105,1.394-4.448,2.51c-1.22,1.013-1.042,3.066,0,4.108C284.305,169.119,285.999,168.933,287.216,167.922     L287.216,167.922z" fill="#212121"/></g><g><path d="M274.542,163.223c0.34-0.602,0.687-1.198,1.078-1.769c-0.276,0.403,0.321-0.368,0.31-0.356     c0.145-0.159,0.68-0.614,0.658-0.599c1.296-0.906,1.892-2.525,1.042-3.975c-0.75-1.282-2.674-1.952-3.974-1.043     c-1.819,1.272-3.049,2.892-4.13,4.811c-0.779,1.378-0.339,3.165,1.042,3.975C271.919,165.057,273.767,164.601,274.542,163.223     L274.542,163.223z" fill="#212121"/></g><g><path d="M260.5,160.729c0-1.712,0-3.425,0-5.138c0-1.584-1.417-2.905-3-2.905s-3,1.321-3,2.905     c0,1.713,0,3.425,0,5.138c0,1.584,1.417,2.905,3,2.905S260.5,162.313,260.5,160.729L260.5,160.729z" fill="#212121"/></g><g><path d="M245.5,159.5c0,0,0-1,0-3c0-4-6-4-6,0c0,2,0,3,0,3C239.5,163.5,245.5,163.5,245.5,159.5     C245.5,159.5,245.5,163.5,245.5,159.5z" fill="#212121"/></g><g><path d="M237.476,159.263c-0.771-1.369-1.545-2.739-2.317-4.109c-0.775-1.379-2.625-1.833-3.974-1.043     c-1.382,0.81-1.819,2.595-1.042,3.975c0.771,1.372,1.543,2.742,2.317,4.112c0.777,1.377,2.623,1.833,3.974,1.042     C237.814,162.429,238.255,160.643,237.476,159.263L237.476,159.263z" fill="#212121"/></g><g><path d="M225.12,160.634c-0.815-1.113-1.5-2.313-2.317-3.425c-0.934-1.275-2.5-1.905-3.974-1.043     c-1.259,0.738-1.98,2.695-1.042,3.975c0.815,1.113,1.5,2.313,2.317,3.425c0.934,1.275,2.5,1.906,3.974,1.043     C225.338,163.87,226.06,161.914,225.12,160.634L225.12,160.634z" fill="#212121"/></g><g><path d="M210.767,159.019c-1.307-1.157-2.653-2.038-4.371-2.46c-1.536-0.379-3.146,0.472-3.573,2.028     c-0.413,1.495,0.492,3.195,2.029,3.573c0.304,0.076,0.598,0.161,0.893,0.265c-0.535-0.188,0.176,0.13,0.246,0.171     c0.104,0.062,0.717,0.541,0.163,0.094c0.172,0.14,0.338,0.29,0.505,0.437c1.186,1.048,2.937,1.17,4.108,0     C211.835,162.059,211.955,160.068,210.767,159.019L210.767,159.019z" fill="#212121"/></g></g><g><circle cx="297.615" cy="280" fill="#282828" r="12.151"/><circle cx="194.442" cy="280" fill="#282828" r="12.151"/><path d="M151.227,306.509c16.766-4.729,5.373-22.999-13.326-16.765    C119.202,295.978,134.46,311.236,151.227,306.509z" fill="#F7C7BC"/><path d="M363.87,296.825c16.765-4.729,5.373-22.998-13.326-16.765C331.843,286.294,347.104,301.554,363.87,296.825    z" fill="#F7C7BC"/><g><path d="M232.911,293.369c1.69,7.35,6.347,14.77,14.828,14.136c7.925-0.592,13.137-8.024,15.38-14.932     c1.161-3.572-4.45-5.091-5.602-1.543c-1.559,4.798-4.577,9.385-9.739,10.639c-5.678,1.378-8.308-5.678-9.265-9.843     C237.673,288.174,232.071,289.723,232.911,293.369L232.911,293.369z" fill="#282828"/></g></g></g></svg>